# xmcd CD database file
#
# Track frame offsets:
#	150
#	21192
#	37497
#	54285
#	70657
#	88780
#	118877
#	138790
#	157227
#	170730
#	195870
#	211105
#
# Disc length: 3003 seconds
#
# Revision: 0
# Processed by: cddbd v1.4PL0 Copyright (c) Steve Scherf et al.
# Submitted via: CDex 1.51
#
DISCID=a80bb90c
DTITLE=Bob Boykin and Fire Power feat. Ernie Watts - HAZARDOUS MATERIAL
DYEAR=1996
DGENRE=Jazz
TTITLE0=hazardous material
TTITLE1=language of the heart
TTITLE2=gone fishin'
TTITLE3=midnight in Jamaica
TTITLE4=Bern city
TTITLE5=Georgia blues
TTITLE6=zamba
TTITLE7=heartbeat
TTITLE8=wackazoid man
TTITLE9=cool breeze
TTITLE10=Vicky's breakdown
TTITLE11=peace maker
EXTD=YEAR: 1996
EXTT0=
EXTT1=
EXTT2=
EXTT3=
EXTT4=
EXTT5=
EXTT6=
EXTT7=
EXTT8=
EXTT9=
EXTT10=
EXTT11=
PLAYORDER=
